<svg width="955" height="600" viewBox="0 0 955 600" fill="none" xmlns="http://www.w3.org/2000/svg">
<mask id="mask0_210_356" style="mask-type:alpha" maskUnits="userSpaceOnUse" x="0" y="0" width="955" height="600">
<rect width="955" height="600" rx="80" fill="#1867FF"/>
</mask>
<g mask="url(#mask0_210_356)">
<rect width="885" height="485" fill="#1867FF"/>
<path d="M492.5 432.5C464.547 534.858 692.5 600 692.5 600H955V0H758C758 0 696.22 31.0767 677.5 93.5C657.812 159.15 699.214 227.376 677.5 287.5C650.077 363.43 513.768 354.621 492.5 432.5Z" fill="#FB2651"/>
<path d="M0 600H747.5C712.182 504.633 572.606 519.356 489 446.5C419 385.5 418.5 232.5 310 232.5C201.5 232.5 39.2428 345.192 0 168.5V600Z" fill="#FFB800"/>
</g>
<path d="M60.5938 74.5V120H54.5625V74.5H60.5938ZM88.625 74.5L68.875 99.5312H58.1875L57.25 94.5312H65.2812L81.1562 74.5H88.625ZM82.5625 120L65.4688 98.75L68.8438 93.4688L89.9375 120H82.5625ZM99.2812 97.8125H109.438C112.167 97.8125 114.469 98.2917 116.344 99.25C118.219 100.188 119.635 101.49 120.594 103.156C121.573 104.802 122.062 106.677 122.062 108.781C122.062 110.344 121.792 111.812 121.25 113.188C120.708 114.542 119.896 115.729 118.812 116.75C117.75 117.771 116.427 118.573 114.844 119.156C113.281 119.719 111.479 120 109.438 120H95.0625V86.1875H100.844V115.25H109.438C111.104 115.25 112.438 114.948 113.438 114.344C114.438 113.74 115.156 112.958 115.594 112C116.031 111.042 116.25 110.042 116.25 109C116.25 107.979 116.031 106.979 115.594 106C115.156 105.021 114.438 104.208 113.438 103.562C112.438 102.896 111.104 102.562 109.438 102.562H99.2812V97.8125ZM134.094 86.1875V120H128.312V86.1875H134.094ZM169.719 86.1875V120H163.938V86.1875H169.719ZM167.75 101.719V106.469C166.583 106.906 165.396 107.302 164.188 107.656C163 107.99 161.74 108.26 160.406 108.469C159.094 108.656 157.667 108.75 156.125 108.75C153.458 108.75 151.146 108.292 149.188 107.375C147.229 106.438 145.719 105.031 144.656 103.156C143.594 101.26 143.062 98.875 143.062 96V86.125H148.844V96C148.844 97.875 149.125 99.3958 149.688 100.562C150.25 101.729 151.073 102.594 152.156 103.156C153.24 103.698 154.562 103.969 156.125 103.969C157.625 103.969 159.031 103.875 160.344 103.688C161.677 103.479 162.948 103.208 164.156 102.875C165.385 102.542 166.583 102.156 167.75 101.719ZM185.312 86.1875V120H179.531V86.1875H185.312ZM207.5 86.1875L191.469 105.562H183.375L182.5 100.5H189.125L200.469 86.1875H207.5ZM201.281 120L188.844 104.688L192.562 100.5L208.625 120H201.281ZM219.906 110.844L235.5 86.1875H241.312V120H235.5V95.3438L219.906 120H214.156V86.1875H219.906V110.844ZM273.531 100.844V105.531H255.656V100.844H273.531ZM256.875 86.1875V120H251.094V86.1875H256.875ZM278.219 86.1875V120H272.406V86.1875H278.219ZM321.125 78.5312L306.062 120H299.906L317.25 74.5H321.219L321.125 78.5312ZM333.75 120L318.656 78.5312L318.562 74.5H322.531L339.938 120H333.75ZM332.969 103.156V108.094H307.406V103.156H332.969ZM368.094 100.844V105.531H350.219V100.844H368.094ZM351.438 86.1875V120H345.656V86.1875H351.438ZM372.781 86.1875V120H366.969V86.1875H372.781ZM388.188 86.1875H393.969L393.469 98.8438C393.344 102.052 392.979 104.823 392.375 107.156C391.771 109.49 391 111.479 390.062 113.125C389.125 114.75 388.073 116.115 386.906 117.219C385.76 118.323 384.573 119.25 383.344 120H380.469L380.625 115.281L381.812 115.25C382.5 114.438 383.167 113.604 383.812 112.75C384.458 111.875 385.052 110.844 385.594 109.656C386.135 108.448 386.583 106.979 386.938 105.25C387.312 103.5 387.552 101.365 387.656 98.8438L388.188 86.1875ZM389.625 86.1875H409.969V120H404.188V91.5312H389.625V86.1875ZM379.156 115.25H414.312V129.969H408.531V120H384.938V129.969H379.125L379.156 115.25ZM426.5 92.6875V133H420.688V86.1875H426L426.5 92.6875ZM449.281 102.812V103.469C449.281 105.927 448.99 108.208 448.406 110.312C447.823 112.396 446.969 114.208 445.844 115.75C444.74 117.292 443.375 118.49 441.75 119.344C440.125 120.198 438.26 120.625 436.156 120.625C434.01 120.625 432.115 120.271 430.469 119.562C428.823 118.854 427.427 117.823 426.281 116.469C425.135 115.115 424.219 113.49 423.531 111.594C422.865 109.698 422.406 107.562 422.156 105.188V101.688C422.406 99.1875 422.875 96.9479 423.562 94.9688C424.25 92.9896 425.156 91.3021 426.281 89.9062C427.427 88.4896 428.812 87.4167 430.438 86.6875C432.062 85.9375 433.938 85.5625 436.062 85.5625C438.188 85.5625 440.073 85.9792 441.719 86.8125C443.365 87.625 444.75 88.7917 445.875 90.3125C447 91.8333 447.844 93.6562 448.406 95.7812C448.99 97.8854 449.281 100.229 449.281 102.812ZM443.469 103.469V102.812C443.469 101.125 443.292 99.5417 442.938 98.0625C442.583 96.5625 442.031 95.25 441.281 94.125C440.552 92.9792 439.615 92.0833 438.469 91.4375C437.323 90.7708 435.958 90.4375 434.375 90.4375C432.917 90.4375 431.646 90.6875 430.562 91.1875C429.5 91.6875 428.594 92.3646 427.844 93.2188C427.094 94.0521 426.479 95.0104 426 96.0938C425.542 97.1562 425.198 98.2604 424.969 99.4062V107.5C425.385 108.958 425.969 110.333 426.719 111.625C427.469 112.896 428.469 113.927 429.719 114.719C430.969 115.49 432.542 115.875 434.438 115.875C436 115.875 437.344 115.552 438.469 114.906C439.615 114.24 440.552 113.333 441.281 112.188C442.031 111.042 442.583 109.729 442.938 108.25C443.292 106.75 443.469 105.156 443.469 103.469ZM470.688 120.625C468.333 120.625 466.198 120.229 464.281 119.438C462.385 118.625 460.75 117.49 459.375 116.031C458.021 114.573 456.979 112.844 456.25 110.844C455.521 108.844 455.156 106.656 455.156 104.281V102.969C455.156 100.219 455.562 97.7708 456.375 95.625C457.188 93.4583 458.292 91.625 459.688 90.125C461.083 88.625 462.667 87.4896 464.438 86.7188C466.208 85.9479 468.042 85.5625 469.938 85.5625C472.354 85.5625 474.438 85.9792 476.188 86.8125C477.958 87.6458 479.406 88.8125 480.531 90.3125C481.656 91.7917 482.49 93.5417 483.031 95.5625C483.573 97.5625 483.844 99.75 483.844 102.125V104.719H458.594V100H478.062V99.5625C477.979 98.0625 477.667 96.6042 477.125 95.1875C476.604 93.7708 475.771 92.6042 474.625 91.6875C473.479 90.7708 471.917 90.3125 469.938 90.3125C468.625 90.3125 467.417 90.5938 466.312 91.1562C465.208 91.6979 464.26 92.5104 463.469 93.5938C462.677 94.6771 462.062 96 461.625 97.5625C461.188 99.125 460.969 100.927 460.969 102.969V104.281C460.969 105.885 461.188 107.396 461.625 108.812C462.083 110.208 462.74 111.438 463.594 112.5C464.469 113.562 465.521 114.396 466.75 115C468 115.604 469.417 115.906 471 115.906C473.042 115.906 474.771 115.49 476.188 114.656C477.604 113.823 478.844 112.708 479.906 111.312L483.406 114.094C482.677 115.198 481.75 116.25 480.625 117.25C479.5 118.25 478.115 119.062 476.469 119.688C474.844 120.312 472.917 120.625 470.688 120.625ZM496.844 110.844L512.438 86.1875H518.25V120H512.438V95.3438L496.844 120H491.094V86.1875H496.844V110.844ZM509.281 73.9375H513.969C513.969 75.5625 513.594 77.0104 512.844 78.2812C512.094 79.5312 511.021 80.5104 509.625 81.2188C508.229 81.9271 506.573 82.2812 504.656 82.2812C501.76 82.2812 499.469 81.5104 497.781 79.9688C496.115 78.4062 495.281 76.3958 495.281 73.9375H499.969C499.969 75.1667 500.323 76.25 501.031 77.1875C501.74 78.125 502.948 78.5938 504.656 78.5938C506.323 78.5938 507.51 78.125 508.219 77.1875C508.927 76.25 509.281 75.1667 509.281 73.9375ZM84 169.062V173.969H59.375V169.062H84ZM60.3125 149.5V195H54.2812V149.5H60.3125ZM89.25 149.5V195H83.25V149.5H89.25ZM105.344 185.844L120.938 161.188H126.75V195H120.938V170.344L105.344 195H99.5938V161.188H105.344V185.844ZM142.312 161.188V195H136.531V161.188H142.312ZM164.5 161.188L148.469 180.562H140.375L139.5 175.5H146.125L157.469 161.188H164.5ZM158.281 195L145.844 179.688L149.562 175.5L165.625 195H158.281ZM168.438 178.469V177.75C168.438 175.312 168.792 173.052 169.5 170.969C170.208 168.865 171.229 167.042 172.562 165.5C173.896 163.938 175.51 162.729 177.406 161.875C179.302 161 181.427 160.562 183.781 160.562C186.156 160.562 188.292 161 190.188 161.875C192.104 162.729 193.729 163.938 195.062 165.5C196.417 167.042 197.448 168.865 198.156 170.969C198.865 173.052 199.219 175.312 199.219 177.75V178.469C199.219 180.906 198.865 183.167 198.156 185.25C197.448 187.333 196.417 189.156 195.062 190.719C193.729 192.26 192.115 193.469 190.219 194.344C188.344 195.198 186.219 195.625 183.844 195.625C181.469 195.625 179.333 195.198 177.438 194.344C175.542 193.469 173.917 192.26 172.562 190.719C171.229 189.156 170.208 187.333 169.5 185.25C168.792 183.167 168.438 180.906 168.438 178.469ZM174.219 177.75V178.469C174.219 180.156 174.417 181.75 174.812 183.25C175.208 184.729 175.802 186.042 176.594 187.188C177.406 188.333 178.417 189.24 179.625 189.906C180.833 190.552 182.24 190.875 183.844 190.875C185.427 190.875 186.812 190.552 188 189.906C189.208 189.24 190.208 188.333 191 187.188C191.792 186.042 192.385 184.729 192.781 183.25C193.198 181.75 193.406 180.156 193.406 178.469V177.75C193.406 176.083 193.198 174.51 192.781 173.031C192.385 171.531 191.781 170.208 190.969 169.062C190.177 167.896 189.177 166.979 187.969 166.312C186.781 165.646 185.385 165.312 183.781 165.312C182.198 165.312 180.802 165.646 179.594 166.312C178.406 166.979 177.406 167.896 176.594 169.062C175.802 170.208 175.208 171.531 174.812 173.031C174.417 174.51 174.219 176.083 174.219 177.75ZM228.562 161.188V165.969H212.219V161.188H228.562ZM233.656 161.188V195H227.875V161.188H233.656ZM210.812 161.188H216.625L215.75 177.5C215.604 180.021 215.365 182.25 215.031 184.188C214.719 186.104 214.281 187.75 213.719 189.125C213.177 190.5 212.49 191.625 211.656 192.5C210.844 193.354 209.865 193.99 208.719 194.406C207.573 194.802 206.25 195 204.75 195H202.938V189.906L204.188 189.812C205.083 189.75 205.844 189.542 206.469 189.188C207.115 188.833 207.656 188.312 208.094 187.625C208.531 186.917 208.885 186.01 209.156 184.906C209.448 183.802 209.667 182.49 209.812 180.969C209.979 179.448 210.104 177.677 210.188 175.656L210.812 161.188ZM262.906 189.219V171.812C262.906 170.479 262.635 169.323 262.094 168.344C261.573 167.344 260.781 166.573 259.719 166.031C258.656 165.49 257.344 165.219 255.781 165.219C254.323 165.219 253.042 165.469 251.938 165.969C250.854 166.469 250 167.125 249.375 167.938C248.771 168.75 248.469 169.625 248.469 170.562H242.688C242.688 169.354 243 168.156 243.625 166.969C244.25 165.781 245.146 164.708 246.312 163.75C247.5 162.771 248.917 162 250.562 161.438C252.229 160.854 254.083 160.562 256.125 160.562C258.583 160.562 260.75 160.979 262.625 161.812C264.521 162.646 266 163.906 267.062 165.594C268.146 167.26 268.688 169.354 268.688 171.875V187.625C268.688 188.75 268.781 189.948 268.969 191.219C269.177 192.49 269.479 193.583 269.875 194.5V195H263.844C263.552 194.333 263.323 193.448 263.156 192.344C262.99 191.219 262.906 190.177 262.906 189.219ZM263.906 174.5L263.969 178.562H258.125C256.479 178.562 255.01 178.698 253.719 178.969C252.427 179.219 251.344 179.604 250.469 180.125C249.594 180.646 248.927 181.302 248.469 182.094C248.01 182.865 247.781 183.771 247.781 184.812C247.781 185.875 248.021 186.844 248.5 187.719C248.979 188.594 249.698 189.292 250.656 189.812C251.635 190.312 252.833 190.562 254.25 190.562C256.021 190.562 257.583 190.188 258.938 189.438C260.292 188.688 261.365 187.771 262.156 186.688C262.969 185.604 263.406 184.552 263.469 183.531L265.938 186.312C265.792 187.188 265.396 188.156 264.75 189.219C264.104 190.281 263.24 191.302 262.156 192.281C261.094 193.24 259.823 194.042 258.344 194.688C256.885 195.312 255.24 195.625 253.406 195.625C251.115 195.625 249.104 195.177 247.375 194.281C245.667 193.385 244.333 192.188 243.375 190.688C242.438 189.167 241.969 187.469 241.969 185.594C241.969 183.781 242.323 182.188 243.031 180.812C243.74 179.417 244.76 178.26 246.094 177.344C247.427 176.406 249.031 175.698 250.906 175.219C252.781 174.74 254.875 174.5 257.188 174.5H263.906ZM291.812 195.625C289.458 195.625 287.323 195.229 285.406 194.438C283.51 193.625 281.875 192.49 280.5 191.031C279.146 189.573 278.104 187.844 277.375 185.844C276.646 183.844 276.281 181.656 276.281 179.281V177.969C276.281 175.219 276.688 172.771 277.5 170.625C278.312 168.458 279.417 166.625 280.812 165.125C282.208 163.625 283.792 162.49 285.562 161.719C287.333 160.948 289.167 160.562 291.062 160.562C293.479 160.562 295.562 160.979 297.312 161.812C299.083 162.646 300.531 163.812 301.656 165.312C302.781 166.792 303.615 168.542 304.156 170.562C304.698 172.562 304.969 174.75 304.969 177.125V179.719H279.719V175H299.188V174.562C299.104 173.062 298.792 171.604 298.25 170.188C297.729 168.771 296.896 167.604 295.75 166.688C294.604 165.771 293.042 165.312 291.062 165.312C289.75 165.312 288.542 165.594 287.438 166.156C286.333 166.698 285.385 167.51 284.594 168.594C283.802 169.677 283.188 171 282.75 172.562C282.312 174.125 282.094 175.927 282.094 177.969V179.281C282.094 180.885 282.312 182.396 282.75 183.812C283.208 185.208 283.865 186.438 284.719 187.5C285.594 188.562 286.646 189.396 287.875 190C289.125 190.604 290.542 190.906 292.125 190.906C294.167 190.906 295.896 190.49 297.312 189.656C298.729 188.823 299.969 187.708 301.031 186.312L304.531 189.094C303.802 190.198 302.875 191.25 301.75 192.25C300.625 193.25 299.24 194.062 297.594 194.688C295.969 195.312 294.042 195.625 291.812 195.625ZM327.594 180.125H316.5L316.438 175.5H325.5C327.292 175.5 328.781 175.323 329.969 174.969C331.177 174.615 332.083 174.083 332.688 173.375C333.292 172.667 333.594 171.792 333.594 170.75C333.594 169.938 333.417 169.229 333.062 168.625C332.729 168 332.219 167.49 331.531 167.094C330.844 166.677 329.99 166.375 328.969 166.188C327.969 165.979 326.792 165.875 325.438 165.875H318.031V195H312.25V161.188H325.438C327.583 161.188 329.51 161.375 331.219 161.75C332.948 162.125 334.417 162.698 335.625 163.469C336.854 164.219 337.792 165.177 338.438 166.344C339.083 167.51 339.406 168.885 339.406 170.469C339.406 171.49 339.198 172.458 338.781 173.375C338.365 174.292 337.75 175.104 336.938 175.812C336.125 176.521 335.125 177.104 333.938 177.562C332.75 178 331.385 178.281 329.844 178.406L327.594 180.125ZM327.594 195H314.406L317.281 190.312H327.594C329.198 190.312 330.531 190.115 331.594 189.719C332.656 189.302 333.448 188.719 333.969 187.969C334.51 187.198 334.781 186.281 334.781 185.219C334.781 184.156 334.51 183.25 333.969 182.5C333.448 181.729 332.656 181.146 331.594 180.75C330.531 180.333 329.198 180.125 327.594 180.125H318.812L318.875 175.5H329.844L331.938 177.25C333.792 177.396 335.365 177.854 336.656 178.625C337.948 179.396 338.927 180.375 339.594 181.562C340.26 182.729 340.594 184 340.594 185.375C340.594 186.958 340.292 188.354 339.688 189.562C339.104 190.771 338.25 191.781 337.125 192.594C336 193.385 334.635 193.99 333.031 194.406C331.427 194.802 329.615 195 327.594 195ZM354.594 185.844L370.188 161.188H376V195H370.188V170.344L354.594 195H348.844V161.188H354.594V185.844ZM410.781 161.188V195H405V161.188H410.781ZM408.812 176.719V181.469C407.646 181.906 406.458 182.302 405.25 182.656C404.062 182.99 402.802 183.26 401.469 183.469C400.156 183.656 398.729 183.75 397.188 183.75C394.521 183.75 392.208 183.292 390.25 182.375C388.292 181.438 386.781 180.031 385.719 178.156C384.656 176.26 384.125 173.875 384.125 171V161.125H389.906V171C389.906 172.875 390.188 174.396 390.75 175.562C391.312 176.729 392.135 177.594 393.219 178.156C394.302 178.698 395.625 178.969 397.188 178.969C398.688 178.969 400.094 178.875 401.406 178.688C402.74 178.479 404.01 178.208 405.219 177.875C406.448 177.542 407.646 177.156 408.812 176.719Z" fill="white"/>
<path d="M684.156 424.656V429.094H664.906V424.656H684.156ZM663.812 409.844V406.75C663.812 404.604 664.25 402.729 665.125 401.125C666 399.5 667.229 398.24 668.812 397.344C670.417 396.448 672.312 396 674.5 396C676.708 396 678.604 396.448 680.188 397.344C681.792 398.24 683.021 399.5 683.875 401.125C684.75 402.729 685.188 404.604 685.188 406.75V409.844C685.188 411.99 684.76 413.865 683.906 415.469C683.052 417.073 681.823 418.323 680.219 419.219C678.635 420.115 676.75 420.562 674.562 420.562C672.354 420.562 670.448 420.115 668.844 419.219C667.24 418.323 666 417.073 665.125 415.469C664.25 413.865 663.812 411.99 663.812 409.844ZM668.906 406.75V409.844C668.906 411.115 669.104 412.229 669.5 413.188C669.917 414.146 670.542 414.896 671.375 415.438C672.229 415.958 673.292 416.219 674.562 416.219C675.812 416.219 676.844 415.958 677.656 415.438C678.49 414.896 679.104 414.146 679.5 413.188C679.917 412.229 680.125 411.115 680.125 409.844V406.75C680.125 405.5 679.917 404.396 679.5 403.438C679.083 402.479 678.458 401.729 677.625 401.188C676.812 400.646 675.771 400.375 674.5 400.375C673.25 400.375 672.208 400.646 671.375 401.188C670.542 401.729 669.917 402.479 669.5 403.438C669.104 404.396 668.906 405.5 668.906 406.75ZM658.781 396.5V442H652.406L633.875 406.562V442H628.062V396.5H634.438L653.031 432.031V396.5H658.781ZM711.594 396.25V442H705.812V403.469L694.156 407.719V402.5L710.688 396.25H711.594ZM758.406 437.25V442H728.625V437.844L743.531 421.25C745.365 419.208 746.781 417.479 747.781 416.062C748.802 414.625 749.51 413.344 749.906 412.219C750.323 411.073 750.531 409.906 750.531 408.719C750.531 407.219 750.219 405.865 749.594 404.656C748.99 403.427 748.094 402.448 746.906 401.719C745.719 400.99 744.281 400.625 742.594 400.625C740.573 400.625 738.885 401.021 737.531 401.812C736.198 402.583 735.198 403.667 734.531 405.062C733.865 406.458 733.531 408.062 733.531 409.875H727.75C727.75 407.312 728.312 404.969 729.438 402.844C730.562 400.719 732.229 399.031 734.438 397.781C736.646 396.51 739.365 395.875 742.594 395.875C745.469 395.875 747.927 396.385 749.969 397.406C752.01 398.406 753.573 399.823 754.656 401.656C755.76 403.469 756.312 405.594 756.312 408.031C756.312 409.365 756.083 410.719 755.625 412.094C755.188 413.448 754.573 414.802 753.781 416.156C753.01 417.51 752.104 418.844 751.062 420.156C750.042 421.469 748.948 422.76 747.781 424.031L735.594 437.25H758.406ZM773.031 416.406H777.156C779.177 416.406 780.844 416.073 782.156 415.406C783.49 414.719 784.479 413.792 785.125 412.625C785.792 411.438 786.125 410.104 786.125 408.625C786.125 406.875 785.833 405.406 785.25 404.219C784.667 403.031 783.792 402.135 782.625 401.531C781.458 400.927 779.979 400.625 778.188 400.625C776.562 400.625 775.125 400.948 773.875 401.594C772.646 402.219 771.677 403.115 770.969 404.281C770.281 405.448 769.938 406.823 769.938 408.406H764.156C764.156 406.094 764.74 403.99 765.906 402.094C767.073 400.198 768.708 398.688 770.812 397.562C772.938 396.438 775.396 395.875 778.188 395.875C780.938 395.875 783.344 396.365 785.406 397.344C787.469 398.302 789.073 399.74 790.219 401.656C791.365 403.552 791.938 405.917 791.938 408.75C791.938 409.896 791.667 411.125 791.125 412.438C790.604 413.729 789.781 414.938 788.656 416.062C787.552 417.188 786.115 418.115 784.344 418.844C782.573 419.552 780.448 419.906 777.969 419.906H773.031V416.406ZM773.031 421.156V417.688H777.969C780.865 417.688 783.26 418.031 785.156 418.719C787.052 419.406 788.542 420.323 789.625 421.469C790.729 422.615 791.5 423.875 791.938 425.25C792.396 426.604 792.625 427.958 792.625 429.312C792.625 431.438 792.26 433.323 791.531 434.969C790.823 436.615 789.812 438.01 788.5 439.156C787.208 440.302 785.688 441.167 783.938 441.75C782.188 442.333 780.281 442.625 778.219 442.625C776.24 442.625 774.375 442.344 772.625 441.781C770.896 441.219 769.365 440.406 768.031 439.344C766.698 438.26 765.656 436.938 764.906 435.375C764.156 433.792 763.781 431.99 763.781 429.969H769.562C769.562 431.552 769.906 432.938 770.594 434.125C771.302 435.312 772.302 436.24 773.594 436.906C774.906 437.552 776.448 437.875 778.219 437.875C779.99 437.875 781.51 437.573 782.781 436.969C784.073 436.344 785.062 435.406 785.75 434.156C786.458 432.906 786.812 431.333 786.812 429.438C786.812 427.542 786.417 425.99 785.625 424.781C784.833 423.552 783.708 422.646 782.25 422.062C780.812 421.458 779.115 421.156 777.156 421.156H773.031ZM831.344 426.688V431.438H798.469V428.031L818.844 396.5H823.562L818.5 405.625L805.031 426.688H831.344ZM825 396.5V442H819.219V396.5H825ZM843.906 420.344L839.281 419.156L841.562 396.5H864.906V401.844H846.469L845.094 414.219C845.927 413.74 846.979 413.292 848.25 412.875C849.542 412.458 851.021 412.25 852.688 412.25C854.792 412.25 856.677 412.615 858.344 413.344C860.01 414.052 861.427 415.073 862.594 416.406C863.781 417.74 864.688 419.344 865.312 421.219C865.938 423.094 866.25 425.188 866.25 427.5C866.25 429.688 865.948 431.698 865.344 433.531C864.76 435.365 863.875 436.969 862.688 438.344C861.5 439.698 860 440.75 858.188 441.5C856.396 442.25 854.281 442.625 851.844 442.625C850.01 442.625 848.271 442.375 846.625 441.875C845 441.354 843.542 440.573 842.25 439.531C840.979 438.469 839.938 437.156 839.125 435.594C838.333 434.01 837.833 432.156 837.625 430.031H843.125C843.375 431.74 843.875 433.177 844.625 434.344C845.375 435.51 846.354 436.396 847.562 437C848.792 437.583 850.219 437.875 851.844 437.875C853.219 437.875 854.438 437.635 855.5 437.156C856.562 436.677 857.458 435.99 858.188 435.094C858.917 434.198 859.469 433.115 859.844 431.844C860.24 430.573 860.438 429.146 860.438 427.562C860.438 426.125 860.24 424.792 859.844 423.562C859.448 422.333 858.854 421.26 858.062 420.344C857.292 419.427 856.344 418.719 855.219 418.219C854.094 417.698 852.802 417.438 851.344 417.438C849.406 417.438 847.938 417.698 846.938 418.219C845.958 418.74 844.948 419.448 843.906 420.344ZM894.781 396.438H895.281V401.344H894.781C891.719 401.344 889.156 401.844 887.094 402.844C885.031 403.823 883.396 405.146 882.188 406.812C880.979 408.458 880.104 410.312 879.562 412.375C879.042 414.438 878.781 416.531 878.781 418.656V425.344C878.781 427.365 879.021 429.156 879.5 430.719C879.979 432.26 880.635 433.562 881.469 434.625C882.302 435.688 883.24 436.49 884.281 437.031C885.344 437.573 886.448 437.844 887.594 437.844C888.927 437.844 890.115 437.594 891.156 437.094C892.198 436.573 893.073 435.854 893.781 434.938C894.51 434 895.062 432.896 895.438 431.625C895.812 430.354 896 428.958 896 427.438C896 426.083 895.833 424.781 895.5 423.531C895.167 422.26 894.656 421.135 893.969 420.156C893.281 419.156 892.417 418.375 891.375 417.812C890.354 417.229 889.135 416.938 887.719 416.938C886.115 416.938 884.615 417.333 883.219 418.125C881.844 418.896 880.708 419.917 879.812 421.188C878.938 422.438 878.438 423.802 878.312 425.281L875.25 425.25C875.542 422.917 876.083 420.927 876.875 419.281C877.688 417.615 878.688 416.26 879.875 415.219C881.083 414.156 882.427 413.385 883.906 412.906C885.406 412.406 886.99 412.156 888.656 412.156C890.927 412.156 892.885 412.583 894.531 413.438C896.177 414.292 897.531 415.438 898.594 416.875C899.656 418.292 900.438 419.896 900.938 421.688C901.458 423.458 901.719 425.281 901.719 427.156C901.719 429.302 901.417 431.312 900.812 433.188C900.208 435.062 899.302 436.708 898.094 438.125C896.906 439.542 895.438 440.646 893.688 441.438C891.938 442.229 889.906 442.625 887.594 442.625C885.135 442.625 882.99 442.125 881.156 441.125C879.323 440.104 877.802 438.75 876.594 437.062C875.385 435.375 874.479 433.5 873.875 431.438C873.271 429.375 872.969 427.281 872.969 425.156V422.438C872.969 419.229 873.292 416.083 873.938 413C874.583 409.917 875.698 407.125 877.281 404.625C878.885 402.125 881.104 400.135 883.938 398.656C886.771 397.177 890.385 396.438 894.781 396.438Z" fill="white"/>
<path d="M57.1094 373.566L64.6289 354.562H68.9648L58.9062 378.254C58.6198 378.918 58.3008 379.562 57.9492 380.188C57.5977 380.799 57.168 381.346 56.6602 381.828C56.1523 382.31 55.5208 382.694 54.7656 382.98C54.0234 383.267 53.099 383.41 51.9922 383.41C51.6797 383.41 51.3086 383.391 50.8789 383.352C50.4492 383.326 50.1693 383.293 50.0391 383.254L50.1562 380.246C50.2995 380.272 50.5794 380.298 50.9961 380.324C51.4128 380.337 51.7188 380.344 51.9141 380.344C52.6562 380.344 53.2422 380.194 53.6719 379.895C54.1016 379.595 54.4466 379.217 54.707 378.762C54.9805 378.293 55.2279 377.818 55.4492 377.336L57.1094 373.566ZM50.7227 354.562L58.6328 372.277L59.5703 375.773L56.4062 376.008L46.5039 354.562H50.7227ZM88.3789 361.867V383H84.7656V361.867H88.3789ZM87.1484 371.574V374.543C86.4193 374.816 85.6771 375.064 84.9219 375.285C84.1797 375.493 83.3919 375.663 82.5586 375.793C81.7383 375.91 80.8464 375.969 79.8828 375.969C78.2161 375.969 76.7708 375.682 75.5469 375.109C74.3229 374.523 73.3789 373.645 72.7148 372.473C72.0508 371.288 71.7188 369.797 71.7188 368V361.828H75.332V368C75.332 369.172 75.5078 370.122 75.8594 370.852C76.2109 371.581 76.7253 372.121 77.4023 372.473C78.0794 372.811 78.9062 372.98 79.8828 372.98C80.8203 372.98 81.6992 372.922 82.5195 372.805C83.3529 372.674 84.1471 372.505 84.9023 372.297C85.6706 372.089 86.4193 371.848 87.1484 371.574ZM102.969 383.391C101.497 383.391 100.163 383.143 98.9648 382.648C97.7799 382.141 96.7578 381.431 95.8984 380.52C95.0521 379.608 94.401 378.527 93.9453 377.277C93.4896 376.027 93.2617 374.66 93.2617 373.176V372.355C93.2617 370.637 93.5156 369.107 94.0234 367.766C94.5312 366.411 95.2214 365.266 96.0938 364.328C96.9661 363.391 97.9557 362.681 99.0625 362.199C100.169 361.717 101.315 361.477 102.5 361.477C104.01 361.477 105.312 361.737 106.406 362.258C107.513 362.779 108.418 363.508 109.121 364.445C109.824 365.37 110.345 366.464 110.684 367.727C111.022 368.977 111.191 370.344 111.191 371.828V373.449H95.4102V370.5H107.578V370.227C107.526 369.289 107.331 368.378 106.992 367.492C106.667 366.607 106.146 365.878 105.43 365.305C104.714 364.732 103.737 364.445 102.5 364.445C101.68 364.445 100.924 364.621 100.234 364.973C99.5443 365.311 98.9518 365.819 98.457 366.496C97.9622 367.173 97.5781 368 97.3047 368.977C97.0312 369.953 96.8945 371.079 96.8945 372.355V373.176C96.8945 374.178 97.0312 375.122 97.3047 376.008C97.5911 376.88 98.0013 377.648 98.5352 378.312C99.082 378.977 99.7396 379.497 100.508 379.875C101.289 380.253 102.174 380.441 103.164 380.441C104.44 380.441 105.521 380.181 106.406 379.66C107.292 379.139 108.066 378.443 108.73 377.57L110.918 379.309C110.462 379.999 109.883 380.656 109.18 381.281C108.477 381.906 107.611 382.414 106.582 382.805C105.566 383.195 104.362 383.391 102.969 383.391ZM129.746 371.027V373.957H118.574V371.027H129.746ZM119.336 361.867V383H115.723V361.867H119.336ZM132.676 361.867V383H129.043V361.867H132.676ZM142.402 377.277L152.148 361.867H155.781V383H152.148V367.59L142.402 383H138.809V361.867H142.402V377.277ZM165.508 361.867V383H161.895V361.867H165.508ZM179.375 361.867L169.355 373.977H164.297L163.75 370.812H167.891L174.98 361.867H179.375ZM175.488 383L167.715 373.43L170.039 370.812L180.078 383H175.488ZM204.629 354.406V383H201.016V358.918L193.73 361.574V358.312L204.062 354.406H204.629ZM233.105 366.516V370.852C233.105 373.182 232.897 375.148 232.48 376.75C232.064 378.352 231.465 379.641 230.684 380.617C229.902 381.594 228.958 382.303 227.852 382.746C226.758 383.176 225.521 383.391 224.141 383.391C223.047 383.391 222.038 383.254 221.113 382.98C220.189 382.707 219.355 382.271 218.613 381.672C217.884 381.06 217.259 380.266 216.738 379.289C216.217 378.312 215.82 377.128 215.547 375.734C215.273 374.341 215.137 372.714 215.137 370.852V366.516C215.137 364.185 215.345 362.232 215.762 360.656C216.191 359.081 216.797 357.818 217.578 356.867C218.359 355.904 219.297 355.214 220.391 354.797C221.497 354.38 222.734 354.172 224.102 354.172C225.208 354.172 226.224 354.309 227.148 354.582C228.086 354.842 228.919 355.266 229.648 355.852C230.378 356.424 230.996 357.193 231.504 358.156C232.025 359.107 232.422 360.272 232.695 361.652C232.969 363.033 233.105 364.654 233.105 366.516ZM229.473 371.438V365.91C229.473 364.634 229.395 363.514 229.238 362.551C229.095 361.574 228.88 360.741 228.594 360.051C228.307 359.361 227.943 358.801 227.5 358.371C227.07 357.941 226.569 357.629 225.996 357.434C225.436 357.225 224.805 357.121 224.102 357.121C223.242 357.121 222.48 357.284 221.816 357.609C221.152 357.922 220.592 358.423 220.137 359.113C219.694 359.803 219.355 360.708 219.121 361.828C218.887 362.948 218.77 364.309 218.77 365.91V371.438C218.77 372.714 218.841 373.84 218.984 374.816C219.141 375.793 219.368 376.639 219.668 377.355C219.967 378.059 220.332 378.638 220.762 379.094C221.191 379.549 221.686 379.888 222.246 380.109C222.819 380.318 223.451 380.422 224.141 380.422C225.026 380.422 225.801 380.253 226.465 379.914C227.129 379.576 227.682 379.048 228.125 378.332C228.581 377.603 228.919 376.672 229.141 375.539C229.362 374.393 229.473 373.026 229.473 371.438ZM61.8359 408.867V411.855H51.1523V408.867H61.8359ZM51.6797 408.867V430H48.0664V408.867H51.6797ZM65.0391 408.867V430H61.4062V408.867H65.0391ZM69.8828 419.668V419.219C69.8828 417.695 70.1042 416.283 70.5469 414.98C70.9896 413.665 71.6276 412.526 72.4609 411.562C73.2943 410.586 74.3034 409.831 75.4883 409.297C76.6732 408.75 78.0013 408.477 79.4727 408.477C80.957 408.477 82.2917 408.75 83.4766 409.297C84.6745 409.831 85.6901 410.586 86.5234 411.562C87.3698 412.526 88.0143 413.665 88.457 414.98C88.8997 416.283 89.1211 417.695 89.1211 419.219V419.668C89.1211 421.191 88.8997 422.604 88.457 423.906C88.0143 425.208 87.3698 426.348 86.5234 427.324C85.6901 428.288 84.681 429.043 83.4961 429.59C82.3242 430.124 80.9961 430.391 79.5117 430.391C78.0273 430.391 76.6927 430.124 75.5078 429.59C74.3229 429.043 73.3073 428.288 72.4609 427.324C71.6276 426.348 70.9896 425.208 70.5469 423.906C70.1042 422.604 69.8828 421.191 69.8828 419.668ZM73.4961 419.219V419.668C73.4961 420.723 73.6198 421.719 73.8672 422.656C74.1146 423.581 74.4857 424.401 74.9805 425.117C75.4883 425.833 76.1198 426.4 76.875 426.816C77.6302 427.22 78.5091 427.422 79.5117 427.422C80.5013 427.422 81.3672 427.22 82.1094 426.816C82.8646 426.4 83.4896 425.833 83.9844 425.117C84.4792 424.401 84.8503 423.581 85.0977 422.656C85.3581 421.719 85.4883 420.723 85.4883 419.668V419.219C85.4883 418.177 85.3581 417.194 85.0977 416.27C84.8503 415.332 84.4727 414.505 83.9648 413.789C83.4701 413.06 82.8451 412.487 82.0898 412.07C81.3477 411.654 80.4753 411.445 79.4727 411.445C78.4831 411.445 77.6107 411.654 76.8555 412.07C76.1133 412.487 75.4883 413.06 74.9805 413.789C74.4857 414.505 74.1146 415.332 73.8672 416.27C73.6198 417.194 73.4961 418.177 73.4961 419.219ZM107.461 408.867V411.855H97.2461V408.867H107.461ZM110.645 408.867V430H107.031V408.867H110.645ZM96.3672 408.867H100L99.4531 419.062C99.362 420.638 99.2122 422.031 99.0039 423.242C98.8086 424.44 98.5352 425.469 98.1836 426.328C97.8451 427.188 97.4154 427.891 96.8945 428.438C96.3867 428.971 95.7747 429.368 95.0586 429.629C94.3424 429.876 93.5156 430 92.5781 430H91.4453V426.816L92.2266 426.758C92.7865 426.719 93.2617 426.589 93.6523 426.367C94.056 426.146 94.3945 425.82 94.668 425.391C94.9414 424.948 95.1628 424.382 95.332 423.691C95.5143 423.001 95.651 422.181 95.7422 421.23C95.8464 420.28 95.9245 419.173 95.9766 417.91L96.3672 408.867ZM120.371 424.277L130.117 408.867H133.75V430H130.117V414.59L120.371 430H116.777V408.867H120.371V424.277ZM148.164 408.867V430H144.531V408.867H148.164ZM155.254 408.867V411.797H137.578V408.867H155.254ZM166.016 430.391C164.544 430.391 163.21 430.143 162.012 429.648C160.827 429.141 159.805 428.431 158.945 427.52C158.099 426.608 157.448 425.527 156.992 424.277C156.536 423.027 156.309 421.66 156.309 420.176V419.355C156.309 417.637 156.562 416.107 157.07 414.766C157.578 413.411 158.268 412.266 159.141 411.328C160.013 410.391 161.003 409.681 162.109 409.199C163.216 408.717 164.362 408.477 165.547 408.477C167.057 408.477 168.359 408.737 169.453 409.258C170.56 409.779 171.465 410.508 172.168 411.445C172.871 412.37 173.392 413.464 173.73 414.727C174.069 415.977 174.238 417.344 174.238 418.828V420.449H158.457V417.5H170.625V417.227C170.573 416.289 170.378 415.378 170.039 414.492C169.714 413.607 169.193 412.878 168.477 412.305C167.76 411.732 166.784 411.445 165.547 411.445C164.727 411.445 163.971 411.621 163.281 411.973C162.591 412.311 161.999 412.819 161.504 413.496C161.009 414.173 160.625 415 160.352 415.977C160.078 416.953 159.941 418.079 159.941 419.355V420.176C159.941 421.178 160.078 422.122 160.352 423.008C160.638 423.88 161.048 424.648 161.582 425.312C162.129 425.977 162.786 426.497 163.555 426.875C164.336 427.253 165.221 427.441 166.211 427.441C167.487 427.441 168.568 427.181 169.453 426.66C170.339 426.139 171.113 425.443 171.777 424.57L173.965 426.309C173.509 426.999 172.93 427.656 172.227 428.281C171.523 428.906 170.658 429.414 169.629 429.805C168.613 430.195 167.409 430.391 166.016 430.391ZM180.898 408.867L185.527 416.562L190.215 408.867H194.453L187.539 419.297L194.668 430H190.488L185.605 422.07L180.723 430H176.523L183.633 419.297L176.738 408.867H180.898ZM212.637 418.027V420.957H201.465V418.027H212.637ZM202.227 408.867V430H198.613V408.867H202.227ZM215.566 408.867V430H211.934V408.867H215.566ZM225.293 424.277L235.039 408.867H238.672V430H235.039V414.59L225.293 430H221.699V408.867H225.293V424.277ZM260.41 408.867V430H256.797V408.867H260.41ZM259.18 418.574V421.543C258.451 421.816 257.708 422.064 256.953 422.285C256.211 422.493 255.423 422.663 254.59 422.793C253.77 422.91 252.878 422.969 251.914 422.969C250.247 422.969 248.802 422.682 247.578 422.109C246.354 421.523 245.41 420.645 244.746 419.473C244.082 418.288 243.75 416.797 243.75 415V408.828H247.363V415C247.363 416.172 247.539 417.122 247.891 417.852C248.242 418.581 248.757 419.121 249.434 419.473C250.111 419.811 250.938 419.98 251.914 419.98C252.852 419.98 253.73 419.922 254.551 419.805C255.384 419.674 256.178 419.505 256.934 419.297C257.702 419.089 258.451 418.848 259.18 418.574ZM275 430.391C273.529 430.391 272.194 430.143 270.996 429.648C269.811 429.141 268.789 428.431 267.93 427.52C267.083 426.608 266.432 425.527 265.977 424.277C265.521 423.027 265.293 421.66 265.293 420.176V419.355C265.293 417.637 265.547 416.107 266.055 414.766C266.562 413.411 267.253 412.266 268.125 411.328C268.997 410.391 269.987 409.681 271.094 409.199C272.201 408.717 273.346 408.477 274.531 408.477C276.042 408.477 277.344 408.737 278.438 409.258C279.544 409.779 280.449 410.508 281.152 411.445C281.855 412.37 282.376 413.464 282.715 414.727C283.053 415.977 283.223 417.344 283.223 418.828V420.449H267.441V417.5H279.609V417.227C279.557 416.289 279.362 415.378 279.023 414.492C278.698 413.607 278.177 412.878 277.461 412.305C276.745 411.732 275.768 411.445 274.531 411.445C273.711 411.445 272.956 411.621 272.266 411.973C271.576 412.311 270.983 412.819 270.488 413.496C269.993 414.173 269.609 415 269.336 415.977C269.062 416.953 268.926 418.079 268.926 419.355V420.176C268.926 421.178 269.062 422.122 269.336 423.008C269.622 423.88 270.033 424.648 270.566 425.312C271.113 425.977 271.771 426.497 272.539 426.875C273.32 427.253 274.206 427.441 275.195 427.441C276.471 427.441 277.552 427.181 278.438 426.66C279.323 426.139 280.098 425.443 280.762 424.57L282.949 426.309C282.493 426.999 281.914 427.656 281.211 428.281C280.508 428.906 279.642 429.414 278.613 429.805C277.598 430.195 276.393 430.391 275 430.391ZM295.898 427.422C296.758 427.422 297.552 427.246 298.281 426.895C299.01 426.543 299.609 426.061 300.078 425.449C300.547 424.824 300.814 424.115 300.879 423.32H304.316C304.251 424.57 303.828 425.736 303.047 426.816C302.279 427.884 301.27 428.75 300.02 429.414C298.77 430.065 297.396 430.391 295.898 430.391C294.31 430.391 292.923 430.111 291.738 429.551C290.566 428.991 289.59 428.223 288.809 427.246C288.04 426.27 287.461 425.15 287.07 423.887C286.693 422.611 286.504 421.263 286.504 419.844V419.023C286.504 417.604 286.693 416.263 287.07 415C287.461 413.724 288.04 412.598 288.809 411.621C289.59 410.645 290.566 409.876 291.738 409.316C292.923 408.757 294.31 408.477 295.898 408.477C297.552 408.477 298.997 408.815 300.234 409.492C301.471 410.156 302.441 411.068 303.145 412.227C303.861 413.372 304.251 414.674 304.316 416.133H300.879C300.814 415.26 300.566 414.473 300.137 413.77C299.72 413.066 299.147 412.507 298.418 412.09C297.702 411.66 296.862 411.445 295.898 411.445C294.792 411.445 293.861 411.667 293.105 412.109C292.363 412.539 291.771 413.125 291.328 413.867C290.898 414.596 290.586 415.41 290.391 416.309C290.208 417.194 290.117 418.099 290.117 419.023V419.844C290.117 420.768 290.208 421.68 290.391 422.578C290.573 423.477 290.879 424.29 291.309 425.02C291.751 425.749 292.344 426.335 293.086 426.777C293.841 427.207 294.779 427.422 295.898 427.422ZM312.305 408.867V430H308.691V408.867H312.305ZM326.172 408.867L316.152 420.977H311.094L310.547 417.812H314.688L321.777 408.867H326.172ZM322.285 430L314.512 420.43L316.836 417.812L326.875 430H322.285ZM328.633 419.668V419.219C328.633 417.695 328.854 416.283 329.297 414.98C329.74 413.665 330.378 412.526 331.211 411.562C332.044 410.586 333.053 409.831 334.238 409.297C335.423 408.75 336.751 408.477 338.223 408.477C339.707 408.477 341.042 408.75 342.227 409.297C343.424 409.831 344.44 410.586 345.273 411.562C346.12 412.526 346.764 413.665 347.207 414.98C347.65 416.283 347.871 417.695 347.871 419.219V419.668C347.871 421.191 347.65 422.604 347.207 423.906C346.764 425.208 346.12 426.348 345.273 427.324C344.44 428.288 343.431 429.043 342.246 429.59C341.074 430.124 339.746 430.391 338.262 430.391C336.777 430.391 335.443 430.124 334.258 429.59C333.073 429.043 332.057 428.288 331.211 427.324C330.378 426.348 329.74 425.208 329.297 423.906C328.854 422.604 328.633 421.191 328.633 419.668ZM332.246 419.219V419.668C332.246 420.723 332.37 421.719 332.617 422.656C332.865 423.581 333.236 424.401 333.73 425.117C334.238 425.833 334.87 426.4 335.625 426.816C336.38 427.22 337.259 427.422 338.262 427.422C339.251 427.422 340.117 427.22 340.859 426.816C341.615 426.4 342.24 425.833 342.734 425.117C343.229 424.401 343.6 423.581 343.848 422.656C344.108 421.719 344.238 420.723 344.238 419.668V419.219C344.238 418.177 344.108 417.194 343.848 416.27C343.6 415.332 343.223 414.505 342.715 413.789C342.22 413.06 341.595 412.487 340.84 412.07C340.098 411.654 339.225 411.445 338.223 411.445C337.233 411.445 336.361 411.654 335.605 412.07C334.863 412.487 334.238 413.06 333.73 413.789C333.236 414.505 332.865 415.332 332.617 416.27C332.37 417.194 332.246 418.177 332.246 419.219ZM366.055 408.867V411.855H356.289V430H352.676V408.867H366.055ZM367.852 419.668V419.219C367.852 417.695 368.073 416.283 368.516 414.98C368.958 413.665 369.596 412.526 370.43 411.562C371.263 410.586 372.272 409.831 373.457 409.297C374.642 408.75 375.97 408.477 377.441 408.477C378.926 408.477 380.26 408.75 381.445 409.297C382.643 409.831 383.659 410.586 384.492 411.562C385.339 412.526 385.983 413.665 386.426 414.98C386.868 416.283 387.09 417.695 387.09 419.219V419.668C387.09 421.191 386.868 422.604 386.426 423.906C385.983 425.208 385.339 426.348 384.492 427.324C383.659 428.288 382.65 429.043 381.465 429.59C380.293 430.124 378.965 430.391 377.48 430.391C375.996 430.391 374.661 430.124 373.477 429.59C372.292 429.043 371.276 428.288 370.43 427.324C369.596 426.348 368.958 425.208 368.516 423.906C368.073 422.604 367.852 421.191 367.852 419.668ZM371.465 419.219V419.668C371.465 420.723 371.589 421.719 371.836 422.656C372.083 423.581 372.454 424.401 372.949 425.117C373.457 425.833 374.089 426.4 374.844 426.816C375.599 427.22 376.478 427.422 377.48 427.422C378.47 427.422 379.336 427.22 380.078 426.816C380.833 426.4 381.458 425.833 381.953 425.117C382.448 424.401 382.819 423.581 383.066 422.656C383.327 421.719 383.457 420.723 383.457 419.668V419.219C383.457 418.177 383.327 417.194 383.066 416.27C382.819 415.332 382.441 414.505 381.934 413.789C381.439 413.06 380.814 412.487 380.059 412.07C379.316 411.654 378.444 411.445 377.441 411.445C376.452 411.445 375.579 411.654 374.824 412.07C374.082 412.487 373.457 413.06 372.949 413.789C372.454 414.505 372.083 415.332 371.836 416.27C371.589 417.194 371.465 418.177 371.465 419.219ZM51.6797 455.867V477H48.0664V455.867H51.6797ZM65.5469 455.867L55.5273 467.977H50.4688L49.9219 464.812H54.0625L61.1523 455.867H65.5469ZM61.6602 477L53.8867 467.43L56.2109 464.812L66.25 477H61.6602ZM83.5156 455.867V458.855H73.3008V455.867H83.5156ZM86.6992 455.867V477H83.0859V455.867H86.6992ZM72.4219 455.867H76.0547L75.5078 466.062C75.4167 467.638 75.2669 469.031 75.0586 470.242C74.8633 471.44 74.5898 472.469 74.2383 473.328C73.8997 474.188 73.4701 474.891 72.9492 475.438C72.4414 475.971 71.8294 476.368 71.1133 476.629C70.3971 476.876 69.5703 477 68.6328 477H67.5V473.816L68.2812 473.758C68.8411 473.719 69.3164 473.589 69.707 473.367C70.1107 473.146 70.4492 472.82 70.7227 472.391C70.9961 471.948 71.2174 471.382 71.3867 470.691C71.569 470.001 71.7057 469.181 71.7969 468.23C71.901 467.28 71.9792 466.173 72.0312 464.91L72.4219 455.867ZM104.98 473.387V462.508C104.98 461.674 104.811 460.952 104.473 460.34C104.147 459.715 103.652 459.233 102.988 458.895C102.324 458.556 101.504 458.387 100.527 458.387C99.6159 458.387 98.8151 458.543 98.125 458.855C97.4479 459.168 96.9141 459.578 96.5234 460.086C96.1458 460.594 95.957 461.141 95.957 461.727H92.3438C92.3438 460.971 92.5391 460.223 92.9297 459.48C93.3203 458.738 93.8802 458.068 94.6094 457.469C95.3516 456.857 96.237 456.375 97.2656 456.023C98.3073 455.659 99.4661 455.477 100.742 455.477C102.279 455.477 103.633 455.737 104.805 456.258C105.99 456.779 106.914 457.566 107.578 458.621C108.255 459.663 108.594 460.971 108.594 462.547V472.391C108.594 473.094 108.652 473.842 108.77 474.637C108.9 475.431 109.089 476.115 109.336 476.688V477H105.566C105.384 476.583 105.241 476.03 105.137 475.34C105.033 474.637 104.98 473.986 104.98 473.387ZM105.605 464.188L105.645 466.727H101.992C100.964 466.727 100.046 466.811 99.2383 466.98C98.431 467.137 97.7539 467.378 97.207 467.703C96.6602 468.029 96.2435 468.439 95.957 468.934C95.6706 469.415 95.5273 469.982 95.5273 470.633C95.5273 471.297 95.6771 471.902 95.9766 472.449C96.276 472.996 96.7253 473.432 97.3242 473.758C97.9362 474.07 98.6849 474.227 99.5703 474.227C100.677 474.227 101.654 473.992 102.5 473.523C103.346 473.055 104.017 472.482 104.512 471.805C105.02 471.128 105.293 470.47 105.332 469.832L106.875 471.57C106.784 472.117 106.536 472.723 106.133 473.387C105.729 474.051 105.189 474.689 104.512 475.301C103.848 475.9 103.053 476.401 102.129 476.805C101.217 477.195 100.189 477.391 99.043 477.391C97.6107 477.391 96.3542 477.111 95.2734 476.551C94.2057 475.991 93.3724 475.242 92.7734 474.305C92.1875 473.354 91.8945 472.293 91.8945 471.121C91.8945 469.988 92.1159 468.992 92.5586 468.133C93.0013 467.26 93.6393 466.538 94.4727 465.965C95.306 465.379 96.3086 464.936 97.4805 464.637C98.6523 464.337 99.9609 464.188 101.406 464.188H105.605ZM122.734 474.422C123.594 474.422 124.388 474.246 125.117 473.895C125.846 473.543 126.445 473.061 126.914 472.449C127.383 471.824 127.65 471.115 127.715 470.32H131.152C131.087 471.57 130.664 472.736 129.883 473.816C129.115 474.884 128.105 475.75 126.855 476.414C125.605 477.065 124.232 477.391 122.734 477.391C121.146 477.391 119.759 477.111 118.574 476.551C117.402 475.991 116.426 475.223 115.645 474.246C114.876 473.27 114.297 472.15 113.906 470.887C113.529 469.611 113.34 468.263 113.34 466.844V466.023C113.34 464.604 113.529 463.263 113.906 462C114.297 460.724 114.876 459.598 115.645 458.621C116.426 457.645 117.402 456.876 118.574 456.316C119.759 455.757 121.146 455.477 122.734 455.477C124.388 455.477 125.833 455.815 127.07 456.492C128.307 457.156 129.277 458.068 129.98 459.227C130.697 460.372 131.087 461.674 131.152 463.133H127.715C127.65 462.26 127.402 461.473 126.973 460.77C126.556 460.066 125.983 459.507 125.254 459.09C124.538 458.66 123.698 458.445 122.734 458.445C121.628 458.445 120.697 458.667 119.941 459.109C119.199 459.539 118.607 460.125 118.164 460.867C117.734 461.596 117.422 462.41 117.227 463.309C117.044 464.194 116.953 465.099 116.953 466.023V466.844C116.953 467.768 117.044 468.68 117.227 469.578C117.409 470.477 117.715 471.29 118.145 472.02C118.587 472.749 119.18 473.335 119.922 473.777C120.677 474.207 121.615 474.422 122.734 474.422ZM143.672 474.422C144.531 474.422 145.326 474.246 146.055 473.895C146.784 473.543 147.383 473.061 147.852 472.449C148.32 471.824 148.587 471.115 148.652 470.32H152.09C152.025 471.57 151.602 472.736 150.82 473.816C150.052 474.884 149.043 475.75 147.793 476.414C146.543 477.065 145.169 477.391 143.672 477.391C142.083 477.391 140.697 477.111 139.512 476.551C138.34 475.991 137.363 475.223 136.582 474.246C135.814 473.27 135.234 472.15 134.844 470.887C134.466 469.611 134.277 468.263 134.277 466.844V466.023C134.277 464.604 134.466 463.263 134.844 462C135.234 460.724 135.814 459.598 136.582 458.621C137.363 457.645 138.34 456.876 139.512 456.316C140.697 455.757 142.083 455.477 143.672 455.477C145.326 455.477 146.771 455.815 148.008 456.492C149.245 457.156 150.215 458.068 150.918 459.227C151.634 460.372 152.025 461.674 152.09 463.133H148.652C148.587 462.26 148.34 461.473 147.91 460.77C147.493 460.066 146.921 459.507 146.191 459.09C145.475 458.66 144.635 458.445 143.672 458.445C142.565 458.445 141.634 458.667 140.879 459.109C140.137 459.539 139.544 460.125 139.102 460.867C138.672 461.596 138.359 462.41 138.164 463.309C137.982 464.194 137.891 465.099 137.891 466.023V466.844C137.891 467.768 137.982 468.68 138.164 469.578C138.346 470.477 138.652 471.29 139.082 472.02C139.525 472.749 140.117 473.335 140.859 473.777C141.615 474.207 142.552 474.422 143.672 474.422ZM168.613 473.387V462.508C168.613 461.674 168.444 460.952 168.105 460.34C167.78 459.715 167.285 459.233 166.621 458.895C165.957 458.556 165.137 458.387 164.16 458.387C163.249 458.387 162.448 458.543 161.758 458.855C161.081 459.168 160.547 459.578 160.156 460.086C159.779 460.594 159.59 461.141 159.59 461.727H155.977C155.977 460.971 156.172 460.223 156.562 459.48C156.953 458.738 157.513 458.068 158.242 457.469C158.984 456.857 159.87 456.375 160.898 456.023C161.94 455.659 163.099 455.477 164.375 455.477C165.911 455.477 167.266 455.737 168.438 456.258C169.622 456.779 170.547 457.566 171.211 458.621C171.888 459.663 172.227 460.971 172.227 462.547V472.391C172.227 473.094 172.285 473.842 172.402 474.637C172.533 475.431 172.721 476.115 172.969 476.688V477H169.199C169.017 476.583 168.874 476.03 168.77 475.34C168.665 474.637 168.613 473.986 168.613 473.387ZM169.238 464.188L169.277 466.727H165.625C164.596 466.727 163.678 466.811 162.871 466.98C162.064 467.137 161.387 467.378 160.84 467.703C160.293 468.029 159.876 468.439 159.59 468.934C159.303 469.415 159.16 469.982 159.16 470.633C159.16 471.297 159.31 471.902 159.609 472.449C159.909 472.996 160.358 473.432 160.957 473.758C161.569 474.07 162.318 474.227 163.203 474.227C164.31 474.227 165.286 473.992 166.133 473.523C166.979 473.055 167.65 472.482 168.145 471.805C168.652 471.128 168.926 470.47 168.965 469.832L170.508 471.57C170.417 472.117 170.169 472.723 169.766 473.387C169.362 474.051 168.822 474.689 168.145 475.301C167.48 475.9 166.686 476.401 165.762 476.805C164.85 477.195 163.822 477.391 162.676 477.391C161.243 477.391 159.987 477.111 158.906 476.551C157.839 475.991 157.005 475.242 156.406 474.305C155.82 473.354 155.527 472.293 155.527 471.121C155.527 469.988 155.749 468.992 156.191 468.133C156.634 467.26 157.272 466.538 158.105 465.965C158.939 465.379 159.941 464.936 161.113 464.637C162.285 464.337 163.594 464.188 165.039 464.188H169.238Z" fill="white"/>
</svg>
