<svg width="955" height="600" viewBox="0 0 955 600" fill="none" xmlns="http://www.w3.org/2000/svg">
<mask id="mask0_210_351" style="mask-type:alpha" maskUnits="userSpaceOnUse" x="0" y="0" width="955" height="600">
<rect width="955" height="600" rx="80" fill="#1867FF"/>
</mask>
<g mask="url(#mask0_210_351)">
<rect width="885" height="485" fill="#1867FF"/>
<path d="M492.5 432.5C464.547 534.858 692.5 600 692.5 600H955V0H758C758 0 696.22 31.0767 677.5 93.5C657.812 159.15 699.214 227.376 677.5 287.5C650.077 363.43 513.768 354.621 492.5 432.5Z" fill="#FB2651"/>
<path d="M0 600H747.5C712.182 504.633 572.606 519.356 489 446.5C419 385.5 418.5 232.5 310 232.5C201.5 232.5 39.2428 345.192 0 168.5V600Z" fill="#FFB800"/>
</g>
</svg>
