<?xml version="1.0" encoding="UTF-8" standalone="no"?>
<svg
   width="60"
   height="60"
   viewBox="0 0 60 60"
   fill="none"
   version="1.1"
   id="svg31"
   sodipodi:docname="home.svg"
   inkscape:version="1.1.1 (3bf5ae0d25, 2021-09-20)"
   xmlns:inkscape="http://www.inkscape.org/namespaces/inkscape"
   xmlns:sodipodi="http://sodipodi.sourceforge.net/DTD/sodipodi-0.dtd"
   xmlns="http://www.w3.org/2000/svg"
   xmlns:svg="http://www.w3.org/2000/svg">
  <sodipodi:namedview
     id="namedview33"
     pagecolor="#505050"
     bordercolor="#eeeeee"
     borderopacity="1"
     inkscape:pageshadow="0"
     inkscape:pageopacity="0"
     inkscape:pagecheckerboard="0"
     showgrid="false"
     inkscape:zoom="11.313709"
     inkscape:cx="28.947184"
     inkscape:cy="38.22796"
     inkscape:window-width="1920"
     inkscape:window-height="1001"
     inkscape:window-x="-9"
     inkscape:window-y="-9"
     inkscape:window-maximized="1"
     inkscape:current-layer="svg31" />
  <defs
     id="defs29">
    <clipPath
       id="clip0_204_1595">
      <rect
         width="60"
         height="60"
         fill="white"
         id="rect26" />
    </clipPath>
  </defs>
  <path
     style="fill:#a5abb3;stroke-width:0.0805369;fill-opacity:1"
     d="M 7.5704698,37.450469 V 22.471407 L 3.8655106,22.450469 0.1605513,22.42953 15.033482,11.275168 C 23.213593,5.1402685 29.948526,0.12080537 30,0.12080537 c 0.08856,0 29.851449,22.28277963 29.813534,22.32069463 -0.0099,0.0099 -1.611864,-0.03306 -3.560021,-0.09536 -1.948157,-0.0623 -3.605526,-0.114326 -3.683043,-0.115615 -0.133736,-0.0022 -0.14094,0.769537 -0.14094,15.098329 V 52.42953 H 44.979866 37.530201 V 44.939597 37.449664 H 30 22.469799 v 7.489933 7.489933 H 15.020134 7.5704698 Z"
     id="path1322" />
  <path
     style="fill:#a5abb3;fill-opacity:1;stroke-width:0.0805369;stroke:none;stroke-opacity:1"
     d="M 7.5704698,37.46131 V 22.493091 l -0.5436242,-0.05134 c -0.2989933,-0.02824 -1.9358644,-0.0516 -3.6374914,-0.05191 L 0.29548692,22.389262 10.355797,14.843294 C 19.273406,8.1544365 28.445694,1.3020528 29.601225,0.46552319 l 0.406594,-0.29434766 1.647097,1.21959117 c 5.850187,4.3317639 27.951821,20.9353813 27.915775,20.9714283 -0.02419,0.02419 -1.604396,-0.0023 -3.51157,-0.0589 -1.907174,-0.05658 -3.494979,-0.07549 -3.528456,-0.04202 -0.03348,0.03347 -0.07021,6.835025 -0.08163,15.114557 L 52.428275,52.42953 H 44.979238 37.530201 V 44.939597 37.449664 H 30 22.469799 v 7.489933 7.489933 H 15.020134 7.5704698 Z"
     id="path1435" />
  <g
     inkscape:groupmode="layer"
     id="layer1"
     inkscape:label="Layer 1" />
</svg>
