<svg width="178" height="72" viewBox="0 0 178 72" fill="none" xmlns="http://www.w3.org/2000/svg">
<path d="M63.6642 67.6642V59.7062H43.7691V21.2424L49.0745 9.96852L34.4848 35.8321V67.6642H63.6642Z" fill="#7F76DF"/>
<path fill-rule="evenodd" clip-rule="evenodd" d="M0 4V55.7272H9.28436V37.1584H17.2424L21.8846 49.0955L15.9161 62.3589L29.1794 40.4743L26.5268 37.1584C28.9584 35.1689 33.8216 30.6594 33.8216 28.5372V12.6212C32.7163 9.74746 29.71 4 26.5268 4H0ZM9.94753 28.5372V12.6212H20.5582C23.7414 12.6212 24.5372 15.2739 24.5372 16.6002V25.2214C24.5372 27.8741 21.8846 28.5372 20.5582 28.5372H9.94753Z" fill="#7F76DF"/>
<path d="M80.272 54.576C76.016 54.576 72.704 53.136 70.336 50.256C67.968 47.344 66.784 43.072 66.784 37.44C66.784 31.808 67.968 27.488 70.336 24.48C72.704 21.44 76.016 19.92 80.272 19.92C83.088 19.92 85.44 20.56 87.328 21.84C89.248 23.12 90.736 24.928 91.792 27.264L88.528 29.232C87.856 27.504 86.832 26.128 85.456 25.104C84.08 24.048 82.352 23.52 80.272 23.52C78.832 23.52 77.536 23.792 76.384 24.336C75.264 24.88 74.304 25.664 73.504 26.688C72.736 27.68 72.144 28.88 71.728 30.288C71.312 31.664 71.104 33.216 71.104 34.944V39.936C71.104 43.392 71.904 46.096 73.504 48.048C75.104 50 77.36 50.976 80.272 50.976C82.416 50.976 84.208 50.432 85.648 49.344C87.088 48.224 88.144 46.752 88.816 44.928L92.032 46.944C90.976 49.312 89.456 51.184 87.472 52.56C85.488 53.904 83.088 54.576 80.272 54.576ZM119.253 38.832H102.309V54H98.2765V20.496H102.309V35.28H119.253V20.496H123.285V54H119.253V38.832ZM130.63 54V50.64H135.334V23.856H130.63V20.496H144.07V23.856H139.366V50.64H144.07V54H130.63ZM160.217 37.536L155.465 42.816V54H151.433V20.496H155.465V38.304H155.609L160.409 32.496L170.537 20.496H175.481L163.001 34.848L176.345 54H171.353L160.217 37.536Z" fill="#7F76DF"/>
</svg>
