<svg width="393" height="162" viewBox="0 0 393 162" fill="none" xmlns="http://www.w3.org/2000/svg">
<path d="M143.244 152.244V134.339H98.4806V47.7954L110.418 22.4292L77.5907 80.6222V152.244H143.244Z" fill="white"/>
<path fill-rule="evenodd" clip-rule="evenodd" d="M0 9V125.386H20.8898V83.6065H38.7954L49.2403 110.465L35.8111 140.307L65.6537 91.0671L59.6852 83.6065C65.1563 79.1301 76.0986 68.9836 76.0986 64.2088V28.3977C73.6117 21.9318 66.8474 9 59.6852 9H0ZM22.3819 64.2088V28.3977H46.256C53.4182 28.3977 55.2088 34.3662 55.2088 37.3505V56.7482C55.2088 62.7167 49.2403 64.2088 46.256 64.2088H22.3819Z" fill="white"/>
<path d="M168.544 109.152C160.032 109.152 153.408 106.272 148.672 100.512C143.936 94.688 141.568 86.144 141.568 74.88C141.568 63.616 143.936 54.976 148.672 48.96C153.408 42.88 160.032 39.84 168.544 39.84C174.176 39.84 178.88 41.12 182.656 43.68C186.496 46.24 189.472 49.856 191.584 54.528L185.056 58.464C183.712 55.008 181.664 52.256 178.912 50.208C176.16 48.096 172.704 47.04 168.544 47.04C165.664 47.04 163.072 47.584 160.768 48.672C158.528 49.76 156.608 51.328 155.008 53.376C153.472 55.36 152.288 57.76 151.456 60.576C150.624 63.328 150.208 66.432 150.208 69.888V79.872C150.208 86.784 151.808 92.192 155.008 96.096C158.208 100 162.72 101.952 168.544 101.952C172.832 101.952 176.416 100.864 179.296 98.688C182.176 96.448 184.288 93.504 185.632 89.856L192.064 93.888C189.952 98.624 186.912 102.368 182.944 105.12C178.976 107.808 174.176 109.152 168.544 109.152ZM246.505 77.664H212.617V108H204.553V40.992H212.617V70.56H246.505V40.992H254.569V108H246.505V77.664ZM269.26 108V101.28H278.668V47.712H269.26V40.992H296.14V47.712H286.732V101.28H296.14V108H269.26ZM328.434 75.072L318.93 85.632V108H310.866V40.992H318.93V76.608H319.218L328.818 64.992L349.074 40.992H358.962L334.002 69.696L360.69 108H350.706L328.434 75.072Z" fill="white"/>
</svg>
