<svg width="158" height="155" viewBox="0 0 158 155" fill="none" xmlns="http://www.w3.org/2000/svg">
<ellipse cx="79.0001" cy="77.4125" rx="33.2443" ry="32.7008" fill="#FB2651"/>
<rect x="75.9615" width="6.07692" height="40.6787" rx="3.03846" fill="#FB2651"/>
<rect x="75.9615" y="114.321" width="6.07692" height="40.6787" rx="3.03846" fill="#FB2651"/>
<rect x="116.534" y="80.4807" width="5.96154" height="41.4661" rx="2.98077" transform="rotate(-90 116.534 80.4807)" fill="#FB2651"/>
<rect y="80.4807" width="5.96154" height="41.4661" rx="2.98077" transform="rotate(-90 0 80.4807)" fill="#FB2651"/>
<rect width="5.99059" height="41.2706" rx="2.9953" transform="matrix(0.507205 -0.861825 0.870126 0.492829 8.93677 41.283)" fill="#FB2651"/>
<rect width="5.99059" height="41.2706" rx="2.9953" transform="matrix(0.507205 -0.861825 0.870126 0.492829 110.1 98.6189)" fill="#FB2651"/>
<rect width="5.99059" height="41.2706" rx="2.9953" transform="matrix(0.507205 0.861825 -0.870126 0.492829 44.8474 93.2803)" fill="#FB2651"/>
<rect width="5.99059" height="41.2706" rx="2.9953" transform="matrix(0.507205 0.861825 -0.870126 0.492829 146.01 36.1201)" fill="#FB2651"/>
<rect width="6.04829" height="40.877" rx="3.02414" transform="matrix(0.870142 0.4928 -0.507177 0.861842 115.818 8.94238)" fill="#FB2651"/>
<rect width="6.04829" height="40.877" rx="3.02414" transform="matrix(0.870142 0.4928 -0.507177 0.861842 57.5508 108.009)" fill="#FB2651"/>
<rect width="6.04828" height="40.877" rx="3.02414" transform="matrix(0.870126 -0.492829 0.507205 0.861825 95.2648 110.99)" fill="#FB2651"/>
<rect width="6.04828" height="40.877" rx="3.02414" transform="matrix(0.870126 -0.492829 0.507205 0.861825 36.8191 11.7476)" fill="#FB2651"/>
</svg>
