<svg width="507" height="507" viewBox="0 0 507 507" fill="none" xmlns="http://www.w3.org/2000/svg">
<path d="M507 0H0V507H507V0Z" fill="white"/>
<path d="M24.1429 0H0V24.1429H24.1429V0Z" fill="black"/>
<path d="M48.2857 0H24.1428V24.1429H48.2857V0Z" fill="black"/>
<path d="M72.4286 0H48.2858V24.1429H72.4286V0Z" fill="black"/>
<path d="M96.5714 0H72.4286V24.1429H96.5714V0Z" fill="black"/>
<path d="M120.714 0H96.5714V24.1429H120.714V0Z" fill="black"/>
<path d="M144.857 0H120.714V24.1429H144.857V0Z" fill="black"/>
<path d="M169 0H144.857V24.1429H169V0Z" fill="black"/>
<path d="M217.286 0H193.143V24.1429H217.286V0Z" fill="black"/>
<path d="M265.571 0H241.429V24.1429H265.571V0Z" fill="black"/>
<path d="M313.857 0H289.714V24.1429H313.857V0Z" fill="black"/>
<path d="M362.143 0H338V24.1429H362.143V0Z" fill="black"/>
<path d="M386.286 0H362.143V24.1429H386.286V0Z" fill="black"/>
<path d="M410.429 0H386.286V24.1429H410.429V0Z" fill="black"/>
<path d="M434.571 0H410.429V24.1429H434.571V0Z" fill="black"/>
<path d="M458.714 0H434.571V24.1429H458.714V0Z" fill="black"/>
<path d="M482.857 0H458.714V24.1429H482.857V0Z" fill="black"/>
<path d="M507 0H482.857V24.1429H507V0Z" fill="black"/>
<path d="M24.1429 24.1428H0V48.2857H24.1429V24.1428Z" fill="black"/>
<path d="M169 24.1428H144.857V48.2857H169V24.1428Z" fill="black"/>
<path d="M265.571 24.1428H241.429V48.2857H265.571V24.1428Z" fill="black"/>
<path d="M289.714 24.1428H265.571V48.2857H289.714V24.1428Z" fill="black"/>
<path d="M362.143 24.1428H338V48.2857H362.143V24.1428Z" fill="black"/>
<path d="M507 24.1428H482.857V48.2857H507V24.1428Z" fill="black"/>
<path d="M24.1429 48.2858H0V72.4286H24.1429V48.2858Z" fill="black"/>
<path d="M72.4286 48.2858H48.2858V72.4286H72.4286V48.2858Z" fill="black"/>
<path d="M96.5714 48.2858H72.4286V72.4286H96.5714V48.2858Z" fill="black"/>
<path d="M120.714 48.2858H96.5714V72.4286H120.714V48.2858Z" fill="black"/>
<path d="M169 48.2858H144.857V72.4286H169V48.2858Z" fill="black"/>
<path d="M217.286 48.2858H193.143V72.4286H217.286V48.2858Z" fill="black"/>
<path d="M241.429 48.2858H217.286V72.4286H241.429V48.2858Z" fill="black"/>
<path d="M289.714 48.2858H265.571V72.4286H289.714V48.2858Z" fill="black"/>
<path d="M313.857 48.2858H289.714V72.4286H313.857V48.2858Z" fill="black"/>
<path d="M362.143 48.2858H338V72.4286H362.143V48.2858Z" fill="black"/>
<path d="M410.429 48.2858H386.286V72.4286H410.429V48.2858Z" fill="black"/>
<path d="M434.571 48.2858H410.429V72.4286H434.571V48.2858Z" fill="black"/>
<path d="M458.714 48.2858H434.571V72.4286H458.714V48.2858Z" fill="black"/>
<path d="M507 48.2858H482.857V72.4286H507V48.2858Z" fill="black"/>
<path d="M24.1429 72.4286H0V96.5714H24.1429V72.4286Z" fill="black"/>
<path d="M72.4286 72.4286H48.2858V96.5714H72.4286V72.4286Z" fill="black"/>
<path d="M96.5714 72.4286H72.4286V96.5714H96.5714V72.4286Z" fill="black"/>
<path d="M120.714 72.4286H96.5714V96.5714H120.714V72.4286Z" fill="black"/>
<path d="M169 72.4286H144.857V96.5714H169V72.4286Z" fill="black"/>
<path d="M217.286 72.4286H193.143V96.5714H217.286V72.4286Z" fill="black"/>
<path d="M241.429 72.4286H217.286V96.5714H241.429V72.4286Z" fill="black"/>
<path d="M289.714 72.4286H265.571V96.5714H289.714V72.4286Z" fill="black"/>
<path d="M362.143 72.4286H338V96.5714H362.143V72.4286Z" fill="black"/>
<path d="M410.429 72.4286H386.286V96.5714H410.429V72.4286Z" fill="black"/>
<path d="M434.571 72.4286H410.429V96.5714H434.571V72.4286Z" fill="black"/>
<path d="M458.714 72.4286H434.571V96.5714H458.714V72.4286Z" fill="black"/>
<path d="M507 72.4286H482.857V96.5714H507V72.4286Z" fill="black"/>
<path d="M24.1429 96.5714H0V120.714H24.1429V96.5714Z" fill="black"/>
<path d="M72.4286 96.5714H48.2858V120.714H72.4286V96.5714Z" fill="black"/>
<path d="M96.5714 96.5714H72.4286V120.714H96.5714V96.5714Z" fill="black"/>
<path d="M120.714 96.5714H96.5714V120.714H120.714V96.5714Z" fill="black"/>
<path d="M169 96.5714H144.857V120.714H169V96.5714Z" fill="black"/>
<path d="M217.286 96.5714H193.143V120.714H217.286V96.5714Z" fill="black"/>
<path d="M289.714 96.5714H265.571V120.714H289.714V96.5714Z" fill="black"/>
<path d="M313.857 96.5714H289.714V120.714H313.857V96.5714Z" fill="black"/>
<path d="M362.143 96.5714H338V120.714H362.143V96.5714Z" fill="black"/>
<path d="M410.429 96.5714H386.286V120.714H410.429V96.5714Z" fill="black"/>
<path d="M434.571 96.5714H410.429V120.714H434.571V96.5714Z" fill="black"/>
<path d="M458.714 96.5714H434.571V120.714H458.714V96.5714Z" fill="black"/>
<path d="M507 96.5714H482.857V120.714H507V96.5714Z" fill="black"/>
<path d="M24.1429 120.714H0V144.857H24.1429V120.714Z" fill="black"/>
<path d="M169 120.714H144.857V144.857H169V120.714Z" fill="black"/>
<path d="M241.429 120.714H217.286V144.857H241.429V120.714Z" fill="black"/>
<path d="M265.571 120.714H241.429V144.857H265.571V120.714Z" fill="black"/>
<path d="M362.143 120.714H338V144.857H362.143V120.714Z" fill="black"/>
<path d="M507 120.714H482.857V144.857H507V120.714Z" fill="black"/>
<path d="M24.1429 144.857H0V169H24.1429V144.857Z" fill="black"/>
<path d="M48.2857 144.857H24.1428V169H48.2857V144.857Z" fill="black"/>
<path d="M72.4286 144.857H48.2858V169H72.4286V144.857Z" fill="black"/>
<path d="M96.5714 144.857H72.4286V169H96.5714V144.857Z" fill="black"/>
<path d="M120.714 144.857H96.5714V169H120.714V144.857Z" fill="black"/>
<path d="M144.857 144.857H120.714V169H144.857V144.857Z" fill="black"/>
<path d="M169 144.857H144.857V169H169V144.857Z" fill="black"/>
<path d="M217.286 144.857H193.143V169H217.286V144.857Z" fill="black"/>
<path d="M265.571 144.857H241.429V169H265.571V144.857Z" fill="black"/>
<path d="M313.857 144.857H289.714V169H313.857V144.857Z" fill="black"/>
<path d="M362.143 144.857H338V169H362.143V144.857Z" fill="black"/>
<path d="M386.286 144.857H362.143V169H386.286V144.857Z" fill="black"/>
<path d="M410.429 144.857H386.286V169H410.429V144.857Z" fill="black"/>
<path d="M434.571 144.857H410.429V169H434.571V144.857Z" fill="black"/>
<path d="M458.714 144.857H434.571V169H458.714V144.857Z" fill="black"/>
<path d="M482.857 144.857H458.714V169H482.857V144.857Z" fill="black"/>
<path d="M507 144.857H482.857V169H507V144.857Z" fill="black"/>
<path d="M24.1429 193.143H0V217.286H24.1429V193.143Z" fill="black"/>
<path d="M48.2857 193.143H24.1428V217.286H48.2857V193.143Z" fill="black"/>
<path d="M72.4286 193.143H48.2858V217.286H72.4286V193.143Z" fill="black"/>
<path d="M96.5714 193.143H72.4286V217.286H96.5714V193.143Z" fill="black"/>
<path d="M169 193.143H144.857V217.286H169V193.143Z" fill="black"/>
<path d="M217.286 193.143H193.143V217.286H217.286V193.143Z" fill="black"/>
<path d="M241.429 193.143H217.286V217.286H241.429V193.143Z" fill="black"/>
<path d="M265.571 193.143H241.429V217.286H265.571V193.143Z" fill="black"/>
<path d="M289.714 193.143H265.571V217.286H289.714V193.143Z" fill="black"/>
<path d="M313.857 193.143H289.714V217.286H313.857V193.143Z" fill="black"/>
<path d="M338 193.143H313.857V217.286H338V193.143Z" fill="black"/>
<path d="M410.429 193.143H386.286V217.286H410.429V193.143Z" fill="black"/>
<path d="M434.571 193.143H410.429V217.286H434.571V193.143Z" fill="black"/>
<path d="M458.714 193.143H434.571V217.286H458.714V193.143Z" fill="black"/>
<path d="M507 193.143H482.857V217.286H507V193.143Z" fill="black"/>
<path d="M96.5714 217.286H72.4286V241.429H96.5714V217.286Z" fill="black"/>
<path d="M193.143 217.286H169V241.429H193.143V217.286Z" fill="black"/>
<path d="M241.429 217.286H217.286V241.429H241.429V217.286Z" fill="black"/>
<path d="M265.571 217.286H241.429V241.429H265.571V217.286Z" fill="black"/>
<path d="M338 217.286H313.857V241.429H338V217.286Z" fill="black"/>
<path d="M362.143 217.286H338V241.429H362.143V217.286Z" fill="black"/>
<path d="M386.286 217.286H362.143V241.429H386.286V217.286Z" fill="black"/>
<path d="M410.429 217.286H386.286V241.429H410.429V217.286Z" fill="black"/>
<path d="M434.571 217.286H410.429V241.429H434.571V217.286Z" fill="black"/>
<path d="M458.714 217.286H434.571V241.429H458.714V217.286Z" fill="black"/>
<path d="M482.857 217.286H458.714V241.429H482.857V217.286Z" fill="black"/>
<path d="M507 217.286H482.857V241.429H507V217.286Z" fill="black"/>
<path d="M48.2857 241.429H24.1428V265.571H48.2857V241.429Z" fill="black"/>
<path d="M96.5714 241.429H72.4286V265.571H96.5714V241.429Z" fill="black"/>
<path d="M120.714 241.429H96.5714V265.571H120.714V241.429Z" fill="black"/>
<path d="M169 241.429H144.857V265.571H169V241.429Z" fill="black"/>
<path d="M217.286 241.429H193.143V265.571H217.286V241.429Z" fill="black"/>
<path d="M241.429 241.429H217.286V265.571H241.429V241.429Z" fill="black"/>
<path d="M265.571 241.429H241.429V265.571H265.571V241.429Z" fill="black"/>
<path d="M338 241.429H313.857V265.571H338V241.429Z" fill="black"/>
<path d="M434.571 241.429H410.429V265.571H434.571V241.429Z" fill="black"/>
<path d="M482.857 241.429H458.714V265.571H482.857V241.429Z" fill="black"/>
<path d="M507 241.429H482.857V265.571H507V241.429Z" fill="black"/>
<path d="M24.1429 265.571H0V289.714H24.1429V265.571Z" fill="black"/>
<path d="M72.4286 265.571H48.2858V289.714H72.4286V265.571Z" fill="black"/>
<path d="M120.714 265.571H96.5714V289.714H120.714V265.571Z" fill="black"/>
<path d="M144.857 265.571H120.714V289.714H144.857V265.571Z" fill="black"/>
<path d="M193.143 265.571H169V289.714H193.143V265.571Z" fill="black"/>
<path d="M217.286 265.571H193.143V289.714H217.286V265.571Z" fill="black"/>
<path d="M289.714 265.571H265.571V289.714H289.714V265.571Z" fill="black"/>
<path d="M313.857 265.571H289.714V289.714H313.857V265.571Z" fill="black"/>
<path d="M386.286 265.571H362.143V289.714H386.286V265.571Z" fill="black"/>
<path d="M434.571 265.571H410.429V289.714H434.571V265.571Z" fill="black"/>
<path d="M482.857 265.571H458.714V289.714H482.857V265.571Z" fill="black"/>
<path d="M24.1429 289.714H0V313.857H24.1429V289.714Z" fill="black"/>
<path d="M96.5714 289.714H72.4286V313.857H96.5714V289.714Z" fill="black"/>
<path d="M120.714 289.714H96.5714V313.857H120.714V289.714Z" fill="black"/>
<path d="M144.857 289.714H120.714V313.857H144.857V289.714Z" fill="black"/>
<path d="M169 289.714H144.857V313.857H169V289.714Z" fill="black"/>
<path d="M217.286 289.714H193.143V313.857H217.286V289.714Z" fill="black"/>
<path d="M241.429 289.714H217.286V313.857H241.429V289.714Z" fill="black"/>
<path d="M265.571 289.714H241.429V313.857H265.571V289.714Z" fill="black"/>
<path d="M289.714 289.714H265.571V313.857H289.714V289.714Z" fill="black"/>
<path d="M338 289.714H313.857V313.857H338V289.714Z" fill="black"/>
<path d="M362.143 289.714H338V313.857H362.143V289.714Z" fill="black"/>
<path d="M410.429 289.714H386.286V313.857H410.429V289.714Z" fill="black"/>
<path d="M434.571 289.714H410.429V313.857H434.571V289.714Z" fill="black"/>
<path d="M507 289.714H482.857V313.857H507V289.714Z" fill="black"/>
<path d="M217.286 313.857H193.143V338H217.286V313.857Z" fill="black"/>
<path d="M265.571 313.857H241.429V338H265.571V313.857Z" fill="black"/>
<path d="M289.714 313.857H265.571V338H289.714V313.857Z" fill="black"/>
<path d="M313.857 313.857H289.714V338H313.857V313.857Z" fill="black"/>
<path d="M338 313.857H313.857V338H338V313.857Z" fill="black"/>
<path d="M362.143 313.857H338V338H362.143V313.857Z" fill="black"/>
<path d="M410.429 313.857H386.286V338H410.429V313.857Z" fill="black"/>
<path d="M24.1429 338H0V362.143H24.1429V338Z" fill="black"/>
<path d="M48.2857 338H24.1428V362.143H48.2857V338Z" fill="black"/>
<path d="M72.4286 338H48.2858V362.143H72.4286V338Z" fill="black"/>
<path d="M96.5714 338H72.4286V362.143H96.5714V338Z" fill="black"/>
<path d="M120.714 338H96.5714V362.143H120.714V338Z" fill="black"/>
<path d="M144.857 338H120.714V362.143H144.857V338Z" fill="black"/>
<path d="M169 338H144.857V362.143H169V338Z" fill="black"/>
<path d="M289.714 338H265.571V362.143H289.714V338Z" fill="black"/>
<path d="M338 338H313.857V362.143H338V338Z" fill="black"/>
<path d="M362.143 338H338V362.143H362.143V338Z" fill="black"/>
<path d="M410.429 338H386.286V362.143H410.429V338Z" fill="black"/>
<path d="M24.1429 362.143H0V386.286H24.1429V362.143Z" fill="black"/>
<path d="M169 362.143H144.857V386.286H169V362.143Z" fill="black"/>
<path d="M241.429 362.143H217.286V386.286H241.429V362.143Z" fill="black"/>
<path d="M265.571 362.143H241.429V386.286H265.571V362.143Z" fill="black"/>
<path d="M289.714 362.143H265.571V386.286H289.714V362.143Z" fill="black"/>
<path d="M338 362.143H313.857V386.286H338V362.143Z" fill="black"/>
<path d="M386.286 362.143H362.143V386.286H386.286V362.143Z" fill="black"/>
<path d="M410.429 362.143H386.286V386.286H410.429V362.143Z" fill="black"/>
<path d="M434.571 362.143H410.429V386.286H434.571V362.143Z" fill="black"/>
<path d="M458.714 362.143H434.571V386.286H458.714V362.143Z" fill="black"/>
<path d="M482.857 362.143H458.714V386.286H482.857V362.143Z" fill="black"/>
<path d="M507 362.143H482.857V386.286H507V362.143Z" fill="black"/>
<path d="M24.1429 386.286H0V410.429H24.1429V386.286Z" fill="black"/>
<path d="M72.4286 386.286H48.2858V410.429H72.4286V386.286Z" fill="black"/>
<path d="M96.5714 386.286H72.4286V410.429H96.5714V386.286Z" fill="black"/>
<path d="M120.714 386.286H96.5714V410.429H120.714V386.286Z" fill="black"/>
<path d="M169 386.286H144.857V410.429H169V386.286Z" fill="black"/>
<path d="M289.714 386.286H265.571V410.429H289.714V386.286Z" fill="black"/>
<path d="M410.429 386.286H386.286V410.429H410.429V386.286Z" fill="black"/>
<path d="M458.714 386.286H434.571V410.429H458.714V386.286Z" fill="black"/>
<path d="M482.857 386.286H458.714V410.429H482.857V386.286Z" fill="black"/>
<path d="M24.1429 410.429H0V434.571H24.1429V410.429Z" fill="black"/>
<path d="M72.4286 410.429H48.2858V434.571H72.4286V410.429Z" fill="black"/>
<path d="M96.5714 410.429H72.4286V434.571H96.5714V410.429Z" fill="black"/>
<path d="M120.714 410.429H96.5714V434.571H120.714V410.429Z" fill="black"/>
<path d="M169 410.429H144.857V434.571H169V410.429Z" fill="black"/>
<path d="M217.286 410.429H193.143V434.571H217.286V410.429Z" fill="black"/>
<path d="M241.429 410.429H217.286V434.571H241.429V410.429Z" fill="black"/>
<path d="M265.571 410.429H241.429V434.571H265.571V410.429Z" fill="black"/>
<path d="M313.857 410.429H289.714V434.571H313.857V410.429Z" fill="black"/>
<path d="M338 410.429H313.857V434.571H338V410.429Z" fill="black"/>
<path d="M362.143 410.429H338V434.571H362.143V410.429Z" fill="black"/>
<path d="M386.286 410.429H362.143V434.571H386.286V410.429Z" fill="black"/>
<path d="M482.857 410.429H458.714V434.571H482.857V410.429Z" fill="black"/>
<path d="M24.1429 434.571H0V458.714H24.1429V434.571Z" fill="black"/>
<path d="M72.4286 434.571H48.2858V458.714H72.4286V434.571Z" fill="black"/>
<path d="M96.5714 434.571H72.4286V458.714H96.5714V434.571Z" fill="black"/>
<path d="M120.714 434.571H96.5714V458.714H120.714V434.571Z" fill="black"/>
<path d="M169 434.571H144.857V458.714H169V434.571Z" fill="black"/>
<path d="M217.286 434.571H193.143V458.714H217.286V434.571Z" fill="black"/>
<path d="M265.571 434.571H241.429V458.714H265.571V434.571Z" fill="black"/>
<path d="M289.714 434.571H265.571V458.714H289.714V434.571Z" fill="black"/>
<path d="M313.857 434.571H289.714V458.714H313.857V434.571Z" fill="black"/>
<path d="M338 434.571H313.857V458.714H338V434.571Z" fill="black"/>
<path d="M362.143 434.571H338V458.714H362.143V434.571Z" fill="black"/>
<path d="M386.286 434.571H362.143V458.714H386.286V434.571Z" fill="black"/>
<path d="M458.714 434.571H434.571V458.714H458.714V434.571Z" fill="black"/>
<path d="M24.1429 458.714H0V482.857H24.1429V458.714Z" fill="black"/>
<path d="M169 458.714H144.857V482.857H169V458.714Z" fill="black"/>
<path d="M217.286 458.714H193.143V482.857H217.286V458.714Z" fill="black"/>
<path d="M241.429 458.714H217.286V482.857H241.429V458.714Z" fill="black"/>
<path d="M289.714 458.714H265.571V482.857H289.714V458.714Z" fill="black"/>
<path d="M313.857 458.714H289.714V482.857H313.857V458.714Z" fill="black"/>
<path d="M362.143 458.714H338V482.857H362.143V458.714Z" fill="black"/>
<path d="M386.286 458.714H362.143V482.857H386.286V458.714Z" fill="black"/>
<path d="M410.429 458.714H386.286V482.857H410.429V458.714Z" fill="black"/>
<path d="M507 458.714H482.857V482.857H507V458.714Z" fill="black"/>
<path d="M24.1429 482.857H0V507H24.1429V482.857Z" fill="black"/>
<path d="M48.2857 482.857H24.1428V507H48.2857V482.857Z" fill="black"/>
<path d="M72.4286 482.857H48.2858V507H72.4286V482.857Z" fill="black"/>
<path d="M96.5714 482.857H72.4286V507H96.5714V482.857Z" fill="black"/>
<path d="M120.714 482.857H96.5714V507H120.714V482.857Z" fill="black"/>
<path d="M144.857 482.857H120.714V507H144.857V482.857Z" fill="black"/>
<path d="M169 482.857H144.857V507H169V482.857Z" fill="black"/>
<path d="M217.286 482.857H193.143V507H217.286V482.857Z" fill="black"/>
<path d="M241.429 482.857H217.286V507H241.429V482.857Z" fill="black"/>
<path d="M289.714 482.857H265.571V507H289.714V482.857Z" fill="black"/>
<path d="M313.857 482.857H289.714V507H313.857V482.857Z" fill="black"/>
<path d="M338 482.857H313.857V507H338V482.857Z" fill="black"/>
<path d="M362.143 482.857H338V507H362.143V482.857Z" fill="black"/>
<path d="M410.429 482.857H386.286V507H410.429V482.857Z" fill="black"/>
<path d="M434.571 482.857H410.429V507H434.571V482.857Z" fill="black"/>
<path d="M458.714 482.857H434.571V507H458.714V482.857Z" fill="black"/>
</svg>
