<svg width="70" height="70" viewBox="0 0 70 70" fill="none" xmlns="http://www.w3.org/2000/svg">
<path d="M39.1125 0C31.675 0 26.1625 2.275 22.6625 5.775C19.1625 9.275 17.9375 13.65 17.5 16.975L26.25 18.1125C26.6 15.925 27.3 13.7375 28.9625 12.075C30.625 10.4125 33.25 8.75 39.1125 8.75C44.8875 8.75 48.0375 10.15 49.7875 11.725C51.5375 13.3 52.2375 15.225 52.2375 17.5C52.2375 24.7625 49.2625 26.775 44.8875 30.625C40.5125 34.475 34.7375 40.075 34.7375 50.3125V52.5H43.4875V50.3125C43.4875 43.05 46.2 41.0375 50.575 37.1875C54.95 33.3375 60.9875 27.7375 60.9875 17.5C60.9875 13.3 59.5 8.575 55.825 5.1625C52.0625 1.75 46.4625 0 39.1125 0V0ZM34.7375 61.25V70H43.4875V61.25H34.7375Z" fill="#6D5FFD"/>
</svg>
