<?xml version="1.0" standalone="no"?>
<!DOCTYPE svg PUBLIC "-//W3C//DTD SVG 20010904//EN"
 "http://www.w3.org/TR/2001/REC-SVG-20010904/DTD/svg10.dtd">
<svg version="1.0" xmlns="http://www.w3.org/2000/svg"
 width="700.000000pt" height="700.000000pt" viewBox="0 0 700.000000 700.000000"
 preserveAspectRatio="xMidYMid meet">
<metadata>
Created by potrace 1.14, written by Peter Selinger 2001-2017
</metadata>
<g transform="translate(0.000000,700.000000) scale(0.100000,-0.100000)"
fill="#000000" stroke="none">
<path d="M0 4156 l0 -2845 510 1 510 0 2 1021 3 1021 410 1 c226 0 423 -2 438
-4 16 -2 31 -11 34 -20 15 -43 187 -490 198 -516 7 -16 23 -57 36 -90 12 -33
30 -79 40 -102 11 -23 19 -45 19 -48 0 -7 105 -278 120 -310 5 -11 23 -58 40
-104 17 -46 34 -90 39 -99 9 -16 4 -32 -50 -150 -48 -103 -251 -554 -346 -767
-47 -104 -116 -259 -154 -344 -38 -85 -68 -155 -66 -157 1 -2 48 72 103 164
90 148 199 328 544 897 118 195 496 819 632 1045 55 91 111 182 124 202 l23
36 -42 54 c-23 29 -44 55 -47 58 -3 3 -17 21 -31 40 -15 19 -35 45 -45 57 -41
47 -106 131 -117 150 -4 6 18 32 55 63 162 134 400 368 525 515 72 85 152 202
184 270 l24 50 2 901 c2 1032 13 904 -100 1134 -168 342 -367 590 -545 677
l-76 38 -1498 3 -1498 2 0 -2844z m2255 1893 c213 -4 339 -87 411 -271 l29
-73 1 -549 c1 -484 0 -555 -15 -597 -37 -110 -123 -187 -256 -231 l-70 -23
-630 0 -630 0 -1 872 0 872 60 3 c60 3 904 1 1101 -3z"/>
<path d="M5290 6158 c-70 -127 -90 -163 -147 -263 -22 -38 -53 -92 -68 -120
-40 -72 -94 -168 -105 -185 -5 -8 -46 -80 -90 -160 -44 -80 -85 -152 -90 -160
-5 -8 -32 -55 -59 -105 -95 -170 -118 -211 -226 -400 -59 -104 -119 -210 -133
-235 -29 -54 -82 -147 -99 -175 -7 -11 -16 -27 -20 -35 -17 -35 -217 -388
-239 -422 -13 -21 -21 -38 -18 -38 4 0 0 -8 -8 -17 -8 -10 -32 -49 -53 -88
-73 -134 -115 -206 -131 -230 -12 -16 -14 -299 -14 -1772 l0 -1753 1605 0
1605 0 0 438 0 437 -1090 0 c-965 0 -1091 1 -1095 15 -2 8 -4 960 -3 2114 l0
2099 50 106 c28 58 63 133 78 166 15 33 45 96 66 140 21 44 39 82 39 85 1 3
26 55 55 115 29 61 66 139 82 175 16 36 50 108 75 160 25 52 57 120 71 150 14
30 28 58 30 63 2 4 1 7 -2 7 -2 0 -32 -51 -66 -112z"/>
</g>
</svg>
